<svg width="82" height="60" viewBox="0 0 82 60" fill="none" xmlns="http://www.w3.org/2000/svg">
  <g clip-path="url(#clip0_1_9032)">
    <path
      d="M40.8813 55.3249C55.0829 55.3249 66.5956 43.8122 66.5956 29.6106C66.5956 15.409 55.0829 3.8963 40.8813 3.8963C26.6797 3.8963 15.167 15.409 15.167 29.6106C15.167 43.8122 26.6797 55.3249 40.8813 55.3249Z"
      stroke="#E2E2E2" stroke-width="2.72727" stroke-linecap="round" stroke-linejoin="round" />
    <path fill-rule="evenodd" clip-rule="evenodd"
      d="M40.8813 48.3106C51.2097 48.3106 59.5826 39.9378 59.5826 29.6093C59.5826 19.2809 51.2097 10.908 40.8813 10.908C30.5528 10.908 22.18 19.2809 22.18 29.6093C22.18 39.9378 30.5528 48.3106 40.8813 48.3106Z"
      stroke="#E2E2E2" stroke-width="2.72727" stroke-linecap="round" stroke-linejoin="round" />
    <path fill-rule="evenodd" clip-rule="evenodd"
      d="M12.8292 11.091C12.8292 6.82519 10.9027 1.55841 7.37325 1.55841C3.84382 1.55841 1.92014 6.82519 1.92014 11.091C1.92014 15.3569 4.33707 17.1428 7.37325 17.1428C10.4094 17.1428 12.8292 15.3569 12.8292 11.091Z"
      stroke="#E2E2E2" stroke-width="2.72727" stroke-linecap="round" stroke-linejoin="round" />
    <path d="M7.37479 17.1424V34.6827" stroke="#E2E2E2" stroke-width="2.72727"
      stroke-linecap="round" stroke-linejoin="round" />
    <path
      d="M12.0501 39.7396C12.0501 37.1575 9.95693 35.0643 7.37482 35.0643C4.79271 35.0643 2.69949 37.1575 2.69949 39.7396V53.7656C2.69949 56.3477 4.79271 58.4409 7.37482 58.4409C9.95693 58.4409 12.0501 56.3477 12.0501 53.7656V39.7396Z"
      stroke="#E2E2E2" stroke-width="2.72727" stroke-linecap="round" stroke-linejoin="round" />
    <path d="M74.3877 17.1424V34.8857" stroke="#E2E2E2" stroke-width="2.72727"
      stroke-linecap="round" stroke-linejoin="round" />
    <path
      d="M79.0631 39.7396C79.0631 37.1575 76.9698 35.0643 74.3877 35.0643C71.8056 35.0643 69.7124 37.1575 69.7124 39.7396V53.7656C69.7124 56.3477 71.8056 58.4409 74.3877 58.4409C76.9698 58.4409 79.0631 56.3477 79.0631 53.7656V39.7396Z"
      stroke="#E2E2E2" stroke-width="2.72727" stroke-linecap="round" stroke-linejoin="round" />
    <path
      d="M79.8423 2.33771V12.4715C79.8423 15.4818 77.3941 17.9221 74.3878 17.9221C71.3753 17.9221 68.9332 15.4871 68.9332 12.4715V2.33771"
      stroke="#E2E2E2" stroke-width="2.72727" stroke-linecap="round" stroke-linejoin="round" />
    <path d="M74.3877 17.1427V3.87308" stroke="#E2E2E2" stroke-width="2.72727"
      stroke-linecap="round" stroke-linejoin="round" />
  </g>
  <defs>
    <clipPath id="clip0_1_9032">
      <rect width="81.039" height="60" fill="white" transform="translate(0.361633)" />
    </clipPath>
  </defs>
</svg>
  